<svg xmlns="http://www.w3.org/2000/svg" width="48" height="48" viewBox="0 0 24 24" fill="none" stroke="currentColor" stroke-width="1.5" stroke-linecap="round" stroke-linejoin="round">
  <rect width="24" height="24" fill="#0a0a0a"/>
  <g transform="translate(12, 12) scale(0.65) translate(-12, -12)">
    <path d="M19 7V4a1 1 0 0 0-1-1H5a2 2 0 0 0 0 4h15a1 1 0 0 1 1 1v4h-3a2 2 0 0 0 0 4h3a1 1 0 0 0 1-1v-2a1 1 0 0 0-1-1" stroke="#10b981" fill="none"/>
    <path d="M3 7v12a2 2 0 0 0 2 2h14a2 2 0 0 0 2-2v-5" stroke="#10b981" fill="none"/>
    <circle cx="17" cy="12" r="1" fill="#10b981"/>
  </g>
</svg>
